<svg width="212" height="20" viewBox="0 0 212 20" fill="none" xmlns="http://www.w3.org/2000/svg">
<g clip-path="url(#clip0_77_438)">
<path d="M81.8409 15.4134V4.58661H91.5967V0.383362H76.4245V19.6167H91.9549V15.4134H81.8409ZM8.51012 10.3028C9.63491 10.3028 10.4814 10.0601 11.0517 9.5747C11.6244 9.08927 11.9096 8.39743 11.9096 7.50143C11.9096 6.60543 11.6244 5.90905 11.0517 5.41228C10.4814 4.91778 9.63263 4.67053 8.51012 4.67053H5.47111V10.3028H8.51012ZM8.84094 0.38563C10.5909 0.38563 12.1104 0.67371 13.4017 1.24987C14.6908 1.82603 15.6855 2.65171 16.386 3.72237C17.0864 4.79303 17.4355 6.05196 17.4355 7.49916C17.4355 8.94637 17.0864 10.2008 16.386 11.2623C15.6855 12.3239 14.6908 13.1451 13.4017 13.7212C12.1127 14.2974 10.5932 14.5855 8.84094 14.5855H5.47111V19.6121H0V0.38563H8.84322H8.84094ZM32.0373 7.50143C32.0373 6.60316 31.7521 5.90905 31.1794 5.41228C30.609 4.91778 29.7603 4.67053 28.6378 4.67053H25.5988V10.3028H28.6378C29.7626 10.3028 30.609 10.0601 31.1794 9.5747C31.7521 9.08927 32.0373 8.39743 32.0373 7.50143ZM28.583 14.5083H25.5988V19.6189H20.1277V0.38563H28.9709C30.7208 0.38563 32.2403 0.67371 33.5317 1.24987C34.8207 1.82603 35.8155 2.65171 36.5159 3.72237C37.2164 4.79303 37.5654 6.05196 37.5654 7.49916C37.5654 8.94637 37.2392 10.1032 36.5844 11.1399C35.9296 12.1742 34.9964 12.984 33.7804 13.5715L37.9533 19.6167H32.0943L28.5853 14.5061L28.583 14.5083ZM40.6158 0.38563H46.087V19.6167H40.6158V0.38563ZM67.4855 19.6167L67.4307 9.42499L62.457 17.7226H60.0248L55.0785 9.69946V19.6167H50.0226V0.38563H54.5263L61.3253 11.4846L67.9577 0.38563H72.4615L72.5162 19.6167H67.4877H67.4855ZM83.9741 10.0011L86.7712 13.2426L89.5684 10.0011L86.7712 6.75968L83.9741 10.0011Z" fill="#42556A"/>
<path d="M201.249 15.4951C202.226 15.4951 203.111 15.266 203.903 14.8077C204.695 14.3495 205.322 13.7053 205.783 12.8706C206.244 12.0381 206.474 11.0809 206.474 9.99886C206.474 8.91686 206.244 7.96188 205.783 7.12713C205.322 6.29465 204.697 5.64817 203.903 5.18996C203.111 4.73176 202.226 4.50266 201.249 4.50266C200.273 4.50266 199.388 4.73176 198.596 5.18996C197.804 5.64817 197.177 6.29465 196.716 7.12713C196.255 7.95961 196.025 8.91686 196.025 9.99886C196.025 11.0809 196.255 12.0358 196.716 12.8706C197.177 13.7031 197.804 14.3495 198.596 14.8077C199.388 15.266 200.273 15.4951 201.249 15.4951ZM201.249 20C199.205 20 197.366 19.569 195.737 18.7093C194.106 17.8496 192.826 16.6587 191.895 15.1389C190.964 13.6191 190.499 11.9065 190.499 10.0011C190.499 8.09571 190.964 6.38311 191.895 4.86332C192.826 3.34353 194.106 2.15265 195.737 1.29295C197.369 0.430975 199.205 0.0022583 201.249 0.0022583C203.294 0.0022583 205.133 0.433244 206.762 1.29295C208.393 2.15265 209.673 3.34353 210.604 4.86332C211.535 6.38311 212 8.09571 212 10.0011C212 11.9065 211.535 13.6191 210.604 15.1389C209.673 16.6587 208.393 17.8496 206.762 18.7093C205.13 19.5713 203.294 20 201.249 20ZM187.59 0.385609V19.6166H183.086L174.549 9.36826V19.6166H169.187V0.385609H173.691L182.228 10.634V0.385609H187.59ZM159.78 0.385609H165.251V19.6166H159.78V0.385609ZM148.66 20.0023C147.095 20.0023 145.575 19.8095 144.102 19.4261C142.628 19.0405 141.43 18.5278 140.508 17.8882L142.304 13.8777C143.168 14.4471 144.172 14.903 145.315 15.2523C146.458 15.5994 147.581 15.7741 148.685 15.7741C150.786 15.7741 151.836 15.2523 151.836 14.2089C151.836 13.66 151.537 13.2517 150.937 12.9863C150.337 12.7209 149.377 12.4419 148.049 12.1492C146.593 11.8385 145.377 11.5028 144.4 11.1466C143.424 10.7905 142.587 10.2166 141.886 9.4295C141.186 8.64239 140.837 7.57853 140.837 6.24248C140.837 5.06974 141.158 4.01269 141.804 3.06906C142.45 2.12543 143.413 1.37914 144.693 0.830204C145.972 0.281265 147.542 0.00679499 149.404 0.00679499C150.675 0.00679499 151.927 0.149701 153.162 0.433244C154.396 0.716787 155.482 1.13416 156.422 1.6831L154.736 5.72076C152.895 4.73176 151.108 4.23726 149.374 4.23726C148.288 4.23726 147.494 4.39831 146.997 4.71815C146.499 5.03798 146.251 5.45536 146.251 5.96801C146.251 6.48065 146.545 6.86627 147.136 7.12259C147.725 7.37892 148.674 7.64431 149.981 7.91878C151.455 8.22955 152.676 8.56526 153.643 8.92139C154.61 9.27752 155.448 9.84688 156.157 10.6249C156.867 11.403 157.22 12.46 157.22 13.7983C157.22 14.9529 156.899 15.9964 156.253 16.9309C155.607 17.8655 154.64 18.6118 153.351 19.1698C152.062 19.7278 150.494 20.0068 148.653 20.0068L148.66 20.0023ZM131.462 11.8702L128.975 5.71622L126.488 11.8702H131.462ZM133.064 15.8807H124.884L123.365 19.6166H117.782L126.324 0.385609H131.713L140.28 19.6166H134.588L133.068 15.8807H133.064ZM109.648 20.0023C107.622 20.0023 105.804 19.5758 104.191 18.7252C102.58 17.8723 101.311 16.6882 100.392 15.1661C99.4703 13.6464 99.0094 11.9247 99.0094 10.0011C99.0094 8.07757 99.4703 6.35589 100.392 4.8361C101.314 3.31631 102.58 2.12997 104.191 1.27934C105.804 0.426439 107.622 0.0022583 109.648 0.0022583C111.416 0.0022583 113.011 0.313022 114.428 0.936817C115.847 1.56061 117.027 2.45661 117.964 3.62934L114.483 6.76193C113.23 5.26028 111.711 4.50946 109.924 4.50946C108.875 4.50946 107.939 4.73856 107.12 5.19677C106.301 5.65497 105.665 6.30145 105.213 7.13394C104.761 7.96642 104.535 8.92366 104.535 10.0057C104.535 11.0877 104.761 12.0426 105.213 12.8774C105.665 13.7099 106.299 14.3563 107.12 14.8146C107.939 15.2728 108.875 15.5019 109.924 15.5019C111.711 15.5019 113.23 14.751 114.483 13.2494L117.964 16.382C117.024 17.5547 115.845 18.4507 114.428 19.0745C113.009 19.6983 111.416 20.0091 109.648 20.0091V20.0023Z" fill="#B7A075"/>
</g>
<defs>
<clipPath id="clip0_77_438">
<rect width="212" height="20" fill="white"/>
</clipPath>
</defs>
</svg>
